<?xml version="1.0" encoding="utf-8"?>
<COLLADA xmlns="http://www.collada.org/2005/11/COLLADASchema" version="1.4.1" xmlns:xsi="http://www.w3.org/2001/XMLSchema-instance">
  <asset>
    <contributor>
      <author>Blender User</author>
      <authoring_tool>Blender 2.79.0 commit date:2018-02-21, commit time:10:41, hash:8928d99270f</authoring_tool>
    </contributor>
    <created>2023-01-27T23:29:37</created>
    <modified>2023-01-27T23:29:37</modified>
    <unit name="meter" meter="1"/>
    <up_axis>Z_UP</up_axis>
  </asset>
  <library_images>
    <image id="Clock-Texture_png" name="Clock-Texture_png">
      <init_from>Clock-Texture.png</init_from>
    </image>
  </library_images>
  <library_effects>
    <effect id="clock_face-effect">
      <profile_COMMON>
        <newparam sid="Clock-Texture_png-surface">
          <surface type="2D">
            <init_from>Clock-Texture_png</init_from>
          </surface>
        </newparam>
        <newparam sid="Clock-Texture_png-sampler">
          <sampler2D>
            <source>Clock-Texture_png-surface</source>
          </sampler2D>
        </newparam>
        <technique sid="common">
          <lambert>
            <emission>
              <color sid="emission">0 0 0 1</color>
            </emission>
            <ambient>
              <color sid="ambient">0 0 0 1</color>
            </ambient>
            <diffuse>
              <texture texture="Clock-Texture_png-sampler"/>
            </diffuse>
            <index_of_refraction>
              <float sid="index_of_refraction">1</float>
            </index_of_refraction>
          </lambert>
        </technique>
      </profile_COMMON>
    </effect>
    <effect id="metal-effect">
      <profile_COMMON>
        <technique sid="common">
          <lambert>
            <emission>
              <color sid="emission">0 0 0 1</color>
            </emission>
            <ambient>
              <color sid="ambient">0 0 0 1</color>
            </ambient>
            <diffuse>
              <color sid="diffuse">0.05343583 0.05343583 0.05343583 1</color>
            </diffuse>
            <index_of_refraction>
              <float sid="index_of_refraction">1</float>
            </index_of_refraction>
          </lambert>
        </technique>
      </profile_COMMON>
    </effect>
    <effect id="red-effect">
      <profile_COMMON>
        <technique sid="common">
          <lambert>
            <emission>
              <color sid="emission">0 0 0 1</color>
            </emission>
            <ambient>
              <color sid="ambient">0 0 0 1</color>
            </ambient>
            <diffuse>
              <color sid="diffuse">0.64 0.004966648 0 1</color>
            </diffuse>
            <index_of_refraction>
              <float sid="index_of_refraction">1</float>
            </index_of_refraction>
          </lambert>
        </technique>
      </profile_COMMON>
    </effect>
  </library_effects>
  <library_materials>
    <material id="clock_face-material" name="clock_face">
      <instance_effect url="#clock_face-effect"/>
    </material>
    <material id="metal-material" name="metal">
      <instance_effect url="#metal-effect"/>
    </material>
    <material id="red-material" name="red">
      <instance_effect url="#red-effect"/>
    </material>
  </library_materials>
  <library_geometries>
    <geometry id="Cylinder_002-mesh" name="Cylinder.002">
      <mesh>
        <source id="Cylinder_002-mesh-positions">
          <float_array id="Cylinder_002-mesh-positions-array" count="288">0 2.072023 -0.326015 0 2.072023 0.3260151 0.7818315 1.695513 -0.326015 0.7818315 1.695513 0.3260151 0.9749279 0.8495023 -0.326015 0.9749279 0.8495023 0.3260151 0.4338836 0.1710543 -0.326015 0.4338836 0.1710543 0.3260151 -0.4338837 0.1710544 -0.326015 -0.4338837 0.1710544 0.3260151 -0.9749279 0.8495023 -0.326015 -0.9749279 0.8495023 0.3260151 -0.7818316 1.695513 -0.326015 -0.7818316 1.695513 0.3260151 -0.7743435 0.02849853 0.02876323 -0.6207063 0.489875 0.1238651 -0.7332304 0.02849841 -0.02876347 -0.6207063 0.4898749 -0.1238654 -0.7243717 1.19209e-7 0.02876323 -0.4055101 0.3671512 0.1238651 -0.6832585 1.19209e-7 -0.02876347 -0.4055101 0.3671512 -0.1238654 0.4497791 1.791833 0.05508971 0.6276238 2.088672 0.05508971 0.449779 1.791833 -0.05508959 0.6276238 2.088672 -0.05508959 0.5442935 1.735207 0.05508971 0.7221382 2.032046 0.05508971 0.5442935 1.735207 -0.05508959 0.7221382 2.032046 -0.05508959 0.607645 1.915279 -0.4987452 0.1812207 2.123019 -0.1541206 0.3441004 2.043669 0.4034934 0.8711898 1.786888 0.4034934 1.034069 1.707539 -0.1541208 0.7134987 2.132563 -0.4987452 0.2870744 2.340303 -0.1541206 0.449954 2.260953 0.4034934 0.9770435 2.004172 0.4034934 1.139923 1.924823 -0.1541208 0.7987201 2.307495 -0.224709 0.6065952 2.401092 -0.06943887 0.6799804 2.365341 0.1817935 0.91746 2.249649 0.1817935 0.9908451 2.213898 -0.06943893 0.7987201 2.307495 -0.0803107 0.7300549 2.340947 -0.02481734 0.7562827 2.328169 0.06497281 0.8411576 2.286821 0.06497281 0.8673854 2.274044 -0.02481734 0.8921554 2.499288 -0.0803107 0.8234902 2.532739 -0.02481734 0.8497179 2.519962 0.06497281 0.9345929 2.478614 0.06497275 0.9608206 2.465837 -0.02481734 -0.6012452 1.924532 -0.4987452 -0.9916248 1.655094 -0.1541206 -0.842513 1.75801 0.4034935 -0.3599772 2.091055 0.4034934 -0.2108655 2.193972 -0.1541208 -0.7385374 2.12345 -0.4987452 -1.128917 1.854011 -0.1541206 -0.9798052 1.956928 0.4034935 -0.4972695 2.289972 0.4034934 -0.3481578 2.392889 -0.1541208 -0.8490697 2.283596 -0.224709 -1.024955 2.1622 -0.06943887 -0.9577726 2.208569 0.1817935 -0.7403666 2.358622 0.1817935 -0.6731845 2.404991 -0.06943893 -0.8490696 2.283596 -0.0803107 -0.9119307 2.240209 -0.02481734 -0.8879199 2.256781 0.06497281 -0.8102193 2.31041 0.06497281 -0.7862085 2.326982 -0.02481734 -0.9702551 2.459177 -0.0803107 -1.033116 2.41579 -0.02481734 -1.009105 2.432362 0.06497281 -0.9314048 2.485991 0.06497275 -0.907394 2.502563 -0.02481734 -0.5712386 1.726391 0.05508971 -0.7424771 2.027089 0.05508971 -0.5712386 1.726391 -0.05508959 -0.7424772 2.027089 -0.05508959 -0.4754954 1.780914 0.05508971 -0.6467339 2.081612 0.05508971 -0.4754954 1.780914 -0.05508959 -0.6467339 2.081612 -0.05508959 0.7206985 9.62019e-5 0.02876323 0.4015644 0.3670105 0.1238651 0.6795318 1.19209e-7 -0.02876347 0.4015645 0.3670105 -0.1238654 0.7706491 0.02863156 0.02876323 0.6166696 0.4898939 0.1238652 0.7294824 0.02853548 -0.02876347 0.6166697 0.4898939 -0.1238654</float_array>
          <technique_common>
            <accessor source="#Cylinder_002-mesh-positions-array" count="96" stride="3">
              <param name="X" type="float"/>
              <param name="Y" type="float"/>
              <param name="Z" type="float"/>
            </accessor>
          </technique_common>
        </source>
        <source id="Cylinder_002-mesh-normals">
          <float_array id="Cylinder_002-mesh-normals-array" count="453">0.4338839 0.9009688 0 0.974928 0.2225209 0 0.7818316 -0.6234899 0 0 -1 0 -0.7818316 -0.6234899 0 0 0 1 -0.974928 0.2225207 0 -0.4338839 0.9009689 0 0 0 -1 -0.757779 0.3639696 -0.5415692 -0.1010289 -0.1771547 -0.9789838 0.6177042 -0.6508108 0.4414599 -0.09688329 -0.1698842 0.9806901 0.4953915 0.8686698 -2.42807e-7 -0.4669882 -0.818863 -0.3337447 -0.8578228 0.5139456 3.25437e-7 -1.83205e-7 0 -1 0.857823 -0.5139455 0 0 0 1 -0.5139449 -0.8578233 1.4329e-6 0.5139451 0.8578231 0 0.5284154 -0.2574267 -0.8090172 0 0 1 -0.5284149 0.2574266 -0.8090175 0.8549944 -0.416525 0.3090168 -0.8549941 0.4165257 0.3090169 0.8931587 0.4008926 0.2038446 -0.2348431 0.9504189 0.2038452 0.6777291 0.5058433 -0.533672 0.3291572 0.6756559 0.659655 -0.01941335 0.8454689 -0.5336717 0.4379596 0.8989946 -9.65742e-7 0.528415 -0.2574262 -0.8090175 0.4379595 0.8989948 0 0.4379602 0.8989944 0 0.4379599 0.8989946 0 0.4379581 0.8989954 -3.5156e-6 0 0 1 -0.5284155 0.2574277 -0.8090168 0.8549949 -0.4165244 0.3090166 -0.8549942 0.4165261 0.3090161 0.4837493 0.3338829 -0.8090172 2.10306e-7 0 1 -0.4837499 -0.3338829 -0.8090168 0.7827235 0.5402338 0.3090171 -0.7827239 -0.5402328 0.3090177 0.08941006 0.9749119 0.2038447 -0.9432448 0.2621768 0.2038447 -0.1078095 0.838791 -0.533673 -0.4269173 0.6185442 0.659655 -0.7460253 0.3982967 -0.5336723 -0.5680351 0.8230043 1.93148e-6 0.4837501 0.3338831 -0.8090168 -0.5680349 0.8230046 -9.65742e-7 -0.5680356 0.823004 -1.93148e-6 -0.5680344 0.8230049 0 -0.5680344 0.8230049 1.09552e-6 -0.5680353 0.8230043 -4.34551e-6 2.54311e-7 1.63224e-7 1 -0.483749 -0.3338826 -0.8090175 0.7827248 0.5402333 0.3090146 -0.7827237 -0.5402334 0.3090171 -0.8689758 -0.4948547 1.56335e-6 0 0 -1 0.8689757 0.494855 0 0 0 1 0.4948556 -0.8689752 2.45499e-6 -0.4948546 0.8689758 0 -0.6167251 -0.6510865 0.4424214 0.1011542 -0.1770682 -0.9789866 0.7569856 0.3645105 -0.5423144 0.09700858 -0.1698121 0.9806902 -0.4960358 0.8683022 -2.23176e-7 0.4676728 -0.8186519 -0.3333035 0.974928 0.222521 0 0.7818314 -0.6234899 0 -0.7818315 -0.6234899 0 0 0 1 0 0 1 0 0 1 0 0 1 0 0 -1 0 0 -1 -0.9715237 0.2369427 0 -0.1010291 -0.1771548 -0.9789839 0.7975063 -0.6033107 1.30656e-7 -0.09688305 -0.1698843 0.9806901 0.4953917 0.8686698 0 -0.466988 -0.8188624 -0.3337463 -0.8578227 0.5139459 0 0 0 -1 0.8578226 -0.5139459 0 0 0 1 -0.5139449 -0.8578233 0 0.5139448 0.8578234 0 0.5284149 -0.257427 -0.8090174 0 0 1 -0.5284167 0.2574267 -0.8090164 0.8549942 -0.4165255 0.3090168 -0.8549946 0.4165248 0.3090171 0.8931584 0.4008936 0.2038443 -0.2348423 0.9504193 0.203844 0.6777294 0.5058426 -0.5336724 0.3291574 0.6756557 0.659655 -0.0194149 0.8454682 -0.5336727 0.4379608 0.8989942 3.37769e-6 0.5284157 -0.2574269 -0.8090168 0.4379594 0.8989949 5.40428e-6 0.4379602 0.8989944 -5.40428e-6 0.4379628 0.8989931 0 0.4379606 0.8989942 0 0.4379593 0.8989949 0 0.437959 0.8989951 0 1.61834e-7 0 1 -0.5284165 0.257427 -0.8090162 0.8549944 -0.4165255 0.3090168 -0.8549939 0.4165259 0.3090175 0.4837498 0.3338828 -0.809017 0 0 1 -0.4837499 -0.3338834 -0.8090168 0.7827234 0.5402339 0.3090174 -0.7827236 -0.5402337 0.3090168 0.08940911 0.9749122 0.2038441 -0.9432452 0.262175 0.2038452 -0.1078104 0.8387916 -0.5336719 -0.4269172 0.6185451 0.6596542 -0.7460253 0.3982965 -0.5336723 -0.5680347 0.8230047 -2.70214e-6 0.4837489 0.3338823 -0.8090177 -0.5680342 0.823005 2.70214e-6 -0.5680375 0.8230027 0 -0.5680351 0.8230045 5.40428e-6 -0.5680339 0.8230051 0 -0.5680363 0.8230036 1.7578e-6 -0.5680348 0.8230047 6.15229e-6 2.77431e-7 1.63225e-7 1 -0.4837504 -0.3338823 -0.8090168 0.7827227 0.5402333 0.30902 -0.7827234 -0.540233 0.3090184 -0.8689755 -0.4948551 0 0 0 -1 0.8689759 0.4948543 0 0 0 1 0.4948543 -0.8689761 -2.45499e-6 -0.4948532 0.8689767 -2.66016e-7 -0.7971662 -0.60376 0 0.1011543 -0.1770684 -0.9789865 0.9713814 0.2375253 2.43053e-7 0.09700876 -0.1698125 0.9806901 -0.4960357 0.8683022 -2.42807e-7 0.4676722 -0.8186524 -0.333303</float_array>
          <technique_common>
            <accessor source="#Cylinder_002-mesh-normals-array" count="151" stride="3">
              <param name="X" type="float"/>
              <param name="Y" type="float"/>
              <param name="Z" type="float"/>
            </accessor>
          </technique_common>
        </source>
        <source id="Cylinder_002-mesh-map-0">
          <float_array id="Cylinder_002-mesh-map-0-array" count="948">0 0 0 0 0 0 0 0 0 0 0 0 0 0 0 0 0 0 0 0 0 0 0 0 0 0 0 0 0 0 0.7803 0.4285886 0.4826152 0.8018735 0.1849306 0.4285886 0 0 0 0 0 0 0 0 0 0 0 0 0 0 0 0 0 0 0 0 0 0 0 0 0 0 0 0 0 0 0 0 0 0 0 0 0 0 0 0 0 0 0 0 0 0 0 0 0 0 0 0 0 0 0 0 0 0 0 0 0 0 0 0 0 0 0 0 0 0 0 0 0 0 0 0 0 0 0 0 0 0 0 0 0 0 0 0 0 0 0 0 0 0 0 0 0 0 0 0 0 0 0 0 0 0 0 0 0 0 0 0 0 0 0 0 0 0 0 0 0 0 0 0 0 0 0 0 0 0 0 0 0 0 0 0 0 0 0 0 0 0 0 0 0 0 0 0 0 0 0 0 0 0 0 0 0 0 0 0 0 0 0 0 0 0 0 0 0 0 0 0 0 0 0 0 0 0 0 0 0 0 0 0 0 0 0 0 0 0 0 0 0 0 0 0 0 0 0 0 0 0 0 0 0 0 0 0 0 0 0 0 0 0 0 0 0 0 0 0 0 0 0 0 0 0 0 0 0 0 0 0 0 0 0 0 0 0 0 0 0 0 0 0 0 0 0 0 0 0 0 0 0 0 0 0 0 0 0 0 0 0 0 0 0 0 0 0 0 0 0 0 0 0 0 0 0 0 0 0 0 0 0 0 0 0 0 0 0 0 0 0 0 0 0 0 0 0 0 0 0 0 0 0 0 0 0 0 0 0 0 0 0 0 0 0 0 0 0 0 0 0 0 0 0 0 0 0 0 0 0 0 0 0 0 0 0 0 0 0 0 0 0 0 0 0 0 0 0 0 0 0 0 0 0 0 0 0 0 0 0 0 0 0 0 0 0 0 0 0 0 0 0 0 0 0 0 0 0 0 0 0 0 0 0 0 0 0 0 0 0 0 0 0 0 0 0 0 0 0 0 0 0 0 0 0 0 0 0 0 0 0 0 0 0 0 0 0 0 0 0 0 0 0 0 0 0 0 0 0 0 0 0 0 0 0 0 0 0 0 0 0 0 0 0.7803 0.4285886 0.7213398 0.6869097 0.4826152 0.8018735 0.4826152 0.8018735 0.2438907 0.6869097 0.1849306 0.4285886 0.1849306 0.4285886 0.3501332 0.2214312 0.6150974 0.2214312 0.6150974 0.2214312 0.7803 0.4285886 0.1849306 0.4285886 0 0 0 0 0 0 0 0 0 0 0 0 0 0 0 0 0 0 0 0 0 0 0 0 0 0 0 0 0 0 0 0 0 0 0 0 0 0 0 0 0 0 0 0 0 0 0 0 0 0 0 0 0 0 0 0 0 0 0 0 0 0 0 0 0 0 0 0 0 0 0 0 0 0 0 0 0 0 0 0 0 0 0 0 0 0 0 0 0 0 0 0 0 0 0 0 0 0 0 0 0 0 0 0 0 0 0 0 0 0 0 0 0 0 0 0 0 0 0 0 0 0 0 0 0 0 0 0 0 0 0 0 0 0 0 0 0 0 0 0 0 0 0 0 0 0 0 0 0 0 0 0 0 0 0 0 0 0 0 0 0 0 0 0 0 0 0 0 0 0 0 0 0 0 0 0 0 0 0 0 0 0 0 0 0 0 0 0 0 0 0 0 0 0 0 0 0 0 0 0 0 0 0 0 0 0 0 0 0 0 0 0 0 0 0 0 0 0 0 0 0 0 0 0 0 0 0 0 0 0 0 0 0 0 0 0 0 0 0 0 0 0 0 0 0 0 0 0 0 0 0 0 0 0 0 0 0 0 0 0 0 0 0 0 0 0 0 0 0 0 0 0 0 0 0 0 0 0 0 0 0 0 0 0 0 0 0 0 0 0 0 0 0 0 0 0 0 0 0 0 0 0 0 0 0 0 0 0 0 0 0 0 0 0 0 0 0 0 0 0 0 0 0 0 0 0 0 0 0 0 0 0 0 0 0 0 0 0 0 0 0 0 0 0 0 0 0 0 0 0 0 0 0 0 0 0 0 0 0 0 0 0 0 0 0 0 0 0 0 0 0 0 0 0 0 0 0 0 0 0 0 0 0 0 0 0 0 0 0 0 0 0 0 0 0 0 0 0 0 0 0 0 0 0 0 0 0 0 0 0 0 0 0 0 0 0 0 0 0 0 0 0 0 0 0 0 0 0 0 0 0 0 0 0 0 0 0 0 0 0 0 0 0 0</float_array>
          <technique_common>
            <accessor source="#Cylinder_002-mesh-map-0-array" count="474" stride="2">
              <param name="S" type="float"/>
              <param name="T" type="float"/>
            </accessor>
          </technique_common>
        </source>
        <vertices id="Cylinder_002-mesh-vertices">
          <input semantic="POSITION" source="#Cylinder_002-mesh-positions"/>
        </vertices>
        <triangles material="clock_face-material" count="24">
          <input semantic="VERTEX" source="#Cylinder_002-mesh-vertices" offset="0"/>
          <input semantic="NORMAL" source="#Cylinder_002-mesh-normals" offset="1"/>
          <input semantic="TEXCOORD" source="#Cylinder_002-mesh-map-0" offset="2" set="0"/>
          <p>1 0 0 2 0 1 0 0 2 3 1 3 4 1 4 2 1 5 5 2 6 6 2 7 4 2 8 7 3 9 8 3 10 6 3 11 9 4 12 10 4 13 8 4 14 5 5 15 1 5 16 11 5 17 11 6 18 12 6 19 10 6 20 13 7 21 0 7 22 12 7 23 10 8 24 12 8 25 2 8 26 1 0 225 3 0 226 2 0 227 3 74 228 5 74 229 4 74 230 5 75 231 7 75 232 6 75 233 7 3 234 9 3 235 8 3 236 9 76 237 11 76 238 10 76 239 5 77 240 3 77 241 1 77 242 1 78 243 13 78 244 11 78 245 11 79 246 9 79 247 7 79 248 7 80 249 5 80 250 11 80 251 11 6 252 13 6 253 12 6 254 13 7 255 1 7 256 0 7 257 12 8 258 0 8 259 2 8 260 2 81 261 4 81 262 10 81 263 4 8 264 6 8 265 10 8 266 6 82 267 8 82 268 10 82 269</p>
        </triangles>
        <triangles material="metal-material" count="74">
          <input semantic="VERTEX" source="#Cylinder_002-mesh-vertices" offset="0"/>
          <input semantic="NORMAL" source="#Cylinder_002-mesh-normals" offset="1"/>
          <input semantic="TEXCOORD" source="#Cylinder_002-mesh-map-0" offset="2" set="0"/>
          <p>15 9 27 16 9 28 14 9 29 16 10 30 21 10 31 20 10 32 20 11 33 19 11 34 18 11 35 19 12 36 14 12 37 18 12 38 17 13 39 19 13 40 21 13 41 16 14 42 18 14 43 14 14 44 23 15 45 24 15 46 22 15 47 25 16 48 28 16 49 24 16 50 29 17 51 26 17 52 28 17 53 26 18 54 23 18 55 22 18 56 28 19 57 22 19 58 24 19 59 25 20 60 27 20 61 29 20 62 45 32 96 54 32 97 49 32 98 52 36 111 53 36 112 54 36 113 48 37 114 52 37 115 47 37 116 51 38 117 45 38 118 46 38 119 54 39 120 48 39 121 49 39 122 47 40 123 51 40 124 46 40 125 75 52 159 74 52 160 70 52 161 77 57 174 79 57 175 75 57 176 78 58 177 72 58 178 73 58 179 71 59 180 75 59 181 70 59 182 74 60 183 78 60 184 73 60 185 72 61 186 76 61 187 71 61 188 80 62 189 83 62 190 82 62 191 83 63 192 86 63 193 82 63 194 86 64 195 85 64 196 84 64 197 85 65 198 80 65 199 84 65 200 86 66 201 80 66 202 82 66 203 87 67 204 81 67 205 85 67 206 89 68 207 90 68 208 88 68 209 91 69 210 94 69 211 90 69 212 94 70 213 93 70 214 92 70 215 93 71 216 88 71 217 92 71 218 91 72 219 93 72 220 95 72 221 94 73 222 88 73 223 90 73 224 15 83 270 17 83 271 16 83 272 16 84 273 17 84 274 21 84 275 20 85 276 21 85 277 19 85 278 19 86 279 15 86 280 14 86 281 17 87 282 15 87 283 19 87 284 16 88 285 20 88 286 18 88 287 23 89 288 25 89 289 24 89 290 25 90 291 29 90 292 28 90 293 29 91 294 27 91 295 26 91 296 26 92 297 27 92 298 23 92 299 28 93 300 26 93 301 22 93 302 25 94 303 23 94 304 27 94 305 45 106 339 50 106 340 54 106 341 50 111 354 51 111 355 54 111 356 51 112 357 52 112 358 54 112 359 48 113 360 53 113 361 52 113 362 51 114 363 50 114 364 45 114 365 54 115 366 53 115 367 48 115 368 47 116 369 52 116 370 51 116 371 75 128 405 79 128 406 74 128 407 75 133 420 76 133 421 77 133 422 77 134 423 78 134 424 79 134 425 78 135 426 77 135 427 72 135 428 71 136 429 76 136 430 75 136 431 74 137 432 79 137 433 78 137 434 72 138 435 77 138 436 76 138 437 80 139 438 81 139 439 83 139 440 83 140 441 87 140 442 86 140 443 86 141 444 87 141 445 85 141 446 85 142 447 81 142 448 80 142 449 86 143 450 84 143 451 80 143 452 87 144 453 83 144 454 81 144 455 89 145 456 91 145 457 90 145 458 91 146 459 95 146 460 94 146 461 94 147 462 95 147 463 93 147 464 93 148 465 89 148 466 88 148 467 91 149 468 89 149 469 93 149 470 94 150 471 92 150 472 88 150 473</p>
        </triangles>
        <triangles material="red-material" count="60">
          <input semantic="VERTEX" source="#Cylinder_002-mesh-vertices" offset="0"/>
          <input semantic="NORMAL" source="#Cylinder_002-mesh-normals" offset="1"/>
          <input semantic="TEXCOORD" source="#Cylinder_002-mesh-map-0" offset="2" set="0"/>
          <p>35 21 63 34 21 64 30 21 65 33 22 66 37 22 67 32 22 68 31 23 69 35 23 70 30 23 71 39 24 72 33 24 73 34 24 74 37 25 75 31 25 76 32 25 77 39 26 78 43 26 79 38 26 80 42 27 81 36 27 82 37 27 83 40 28 84 39 28 85 35 28 86 38 29 87 42 29 88 37 29 89 41 30 90 35 30 91 36 30 92 44 31 93 48 31 94 43 31 95 47 33 99 41 33 100 42 33 101 45 34 102 44 34 103 40 34 104 48 35 105 42 35 106 43 35 107 41 34 108 45 34 109 40 34 110 55 41 126 64 41 127 59 41 128 63 42 129 57 42 130 58 42 131 56 43 132 60 43 133 55 43 134 59 44 135 63 44 136 58 44 137 57 45 138 61 45 139 56 45 140 69 46 141 63 46 142 64 46 143 67 47 144 61 47 145 62 47 146 60 48 147 69 48 148 64 48 149 68 49 150 62 49 151 63 49 152 61 50 153 65 50 154 60 50 155 74 51 156 68 51 157 69 51 158 72 53 162 66 53 163 67 53 164 65 54 165 74 54 166 69 54 167 68 55 168 72 55 169 67 55 170 66 56 171 70 56 172 65 56 173 35 95 306 39 95 307 34 95 308 33 96 309 38 96 310 37 96 311 31 97 312 36 97 313 35 97 314 39 98 315 38 98 316 33 98 317 37 99 318 36 99 319 31 99 320 39 100 321 44 100 322 43 100 323 42 101 324 41 101 325 36 101 326 40 102 327 44 102 328 39 102 329 38 103 330 43 103 331 42 103 332 41 104 333 40 104 334 35 104 335 44 105 336 49 105 337 48 105 338 47 107 342 46 107 343 41 107 344 45 108 345 49 108 346 44 108 347 48 109 348 47 109 349 42 109 350 41 110 351 46 110 352 45 110 353 55 117 372 60 117 373 64 117 374 63 118 375 62 118 376 57 118 377 56 119 378 61 119 379 60 119 380 59 120 381 64 120 382 63 120 383 57 121 384 62 121 385 61 121 386 69 122 387 68 122 388 63 122 389 67 123 390 66 123 391 61 123 392 60 124 393 65 124 394 69 124 395 68 125 396 67 125 397 62 125 398 61 126 399 66 126 400 65 126 401 74 127 402 73 127 403 68 127 404 72 129 408 71 129 409 66 129 410 65 130 411 70 130 412 74 130 413 68 131 414 73 131 415 72 131 416 66 132 417 71 132 418 70 132 419</p>
        </triangles>
      </mesh>
    </geometry>
  </library_geometries>
  <library_controllers/>
  <library_visual_scenes>
    <visual_scene id="Scene" name="Scene">
      <node id="Clock" name="Clock" type="NODE">
        <matrix sid="transform">0.5289046 0 0 0 0 -2.31192e-8 -0.5289046 0 0 0.5289047 -2.31192e-8 0 0 0 0 1</matrix>
        <instance_geometry url="#Cylinder_002-mesh" name="Clock">
          <bind_material>
            <technique_common>
              <instance_material symbol="clock_face-material" target="#clock_face-material"/>
              <instance_material symbol="metal-material" target="#metal-material"/>
              <instance_material symbol="red-material" target="#red-material"/>
            </technique_common>
          </bind_material>
        </instance_geometry>
      </node>
    </visual_scene>
  </library_visual_scenes>
  <scene>
    <instance_visual_scene url="#Scene"/>
  </scene>
</COLLADA>